<?xml version="1.0" standalone="no"?>
<!DOCTYPE svg PUBLIC "-//W3C//DTD SVG 20010904//EN"
 "http://www.w3.org/TR/2001/REC-SVG-20010904/DTD/svg10.dtd">
<svg version="1.0" xmlns="http://www.w3.org/2000/svg"
 width="400.000000pt" height="300.000000pt" viewBox="0 0 400.000000 300.000000"
 preserveAspectRatio="xMidYMid meet">

<g transform="translate(0.000000,300.000000) scale(0.100000,-0.100000)"
fill="#000000" stroke="none">
<path d="M0 1500 l0 -1500 2000 0 2000 0 0 1500 0 1500 -2000 0 -2000 0 0
-1500z m1619 883 c-107 -102 -162 -178 -219 -298 -59 -124 -79 -201 -87 -335
-7 -131 13 -243 64 -349 66 -138 161 -206 307 -220 l59 -6 24 -75 c13 -41 26
-94 30 -117 l6 -43 -54 16 c-30 9 -79 29 -110 44 -56 29 -68 50 -46 78 7 8 5
12 -8 12 -13 0 -16 -6 -13 -25 6 -28 4 -29 -23 -14 -11 5 -17 14 -14 20 4 5 1
8 -7 7 -7 -2 -12 3 -10 10 1 8 -2 11 -7 8 -14 -9 -96 82 -138 153 -31 53 -39
61 -41 43 -9 -60 78 -249 173 -378 32 -44 101 -121 154 -173 l96 -94 -70 38
c-152 81 -269 188 -362 330 -71 107 -139 267 -159 371 -12 64 -24 34 -24 -58
0 -117 13 -195 51 -315 25 -77 28 -97 17 -104 -16 -11 -26 2 -84 107 -82 151
-114 273 -114 442 0 104 30 271 61 341 19 43 18 65 -1 45 -5 -5 -25 -36 -45
-69 -66 -110 -120 -317 -134 -518 l-7 -102 -14 75 c-22 111 -20 396 3 478 101
368 345 622 699 726 136 41 139 37 47 -51z m645 57 c375 -96 658 -397 732
-778 21 -109 16 -391 -6 -377 -5 3 -6 -4 -3 -15 3 -11 1 -20 -5 -20 -5 0 -13
28 -16 63 -24 209 -106 457 -172 517 -24 22 -26 22 -19 5 68 -172 92 -362 64
-520 -11 -63 -13 -65 -59 -56 -3 1 2 6 10 11 11 7 12 10 2 10 -7 0 -20 -7 -28
-15 -35 -34 -44 -19 -44 70 0 84 -11 111 -25 58 -8 -35 -23 -53 -42 -53 -13 0
-13 3 -3 15 10 12 10 15 -3 15 -8 0 -17 4 -19 10 -1 5 -20 11 -40 13 -29 3
-37 0 -41 -14 -3 -12 0 -19 9 -19 8 0 14 4 14 9 0 5 11 9 25 9 14 0 25 -4 25
-9 0 -9 -18 -14 -75 -23 -16 -3 -41 -8 -55 -12 l-25 -7 22 22 c12 11 27 21 32
21 23 0 17 16 -6 18 -15 1 -31 -5 -39 -15 -7 -10 -3 7 9 38 12 32 25 55 29 52
4 -2 5 3 2 11 -3 8 2 50 12 93 64 287 -43 589 -291 821 -42 39 -71 72 -63 72
8 0 49 -9 92 -20z m-443 -578 c-42 -83 -105 -158 -153 -183 -45 -23 -104 -27
-138 -9 -20 11 -20 12 12 57 34 48 109 112 162 140 23 12 121 48 144 52 1 1
-11 -25 -27 -57z m190 -23 c46 -87 123 -180 173 -207 17 -9 52 -19 78 -22 l48
-5 -73 -43 c-39 -23 -109 -54 -155 -69 -72 -22 -95 -25 -175 -21 -105 6 -175
29 -281 92 -56 34 -64 41 -45 44 67 7 90 15 133 43 51 34 118 122 162 212 26
52 31 57 61 57 30 0 35 -5 74 -81z m147 30 c62 -30 167 -122 191 -166 10 -19
8 -24 -10 -34 -30 -16 -92 -13 -127 5 -57 29 -144 136 -172 212 -10 26 -10 26
22 20 18 -3 61 -20 96 -37z m-548 -354 c24 -15 80 -41 124 -57 198 -72 403
-35 594 106 35 26 65 46 67 44 1 -2 5 -14 8 -29 6 -23 3 -26 -50 -42 -31 -10
-69 -29 -85 -42 -16 -14 -34 -23 -39 -19 -5 3 -8 0 -7 -8 2 -7 -3 -12 -11 -10
-8 2 -11 -3 -8 -12 3 -8 -2 -21 -12 -30 -14 -13 -20 -13 -31 -3 -12 10 -12 9
-1 -5 15 -20 5 -46 -11 -30 -6 6 -17 8 -24 5 -10 -4 -12 0 -8 11 4 10 1 16 -9
16 -12 0 -14 -6 -7 -29 7 -24 5 -29 -6 -24 -8 3 -12 8 -9 13 2 4 -7 5 -20 2
-33 -6 -25 -15 25 -32 22 -7 39 -16 37 -19 -2 -3 -10 -21 -17 -38 -15 -34 -24
-40 -35 -23 -4 6 -11 8 -16 4 -5 -3 -21 1 -34 10 -28 18 -39 20 -30 6 3 -6 -6
-15 -21 -20 -20 -8 -24 -14 -16 -22 8 -8 15 -8 24 -1 14 11 39 16 73 14 16 -1
17 -3 6 -10 -8 -5 -21 -7 -30 -4 -13 4 -14 3 -2 -5 8 -6 16 -17 17 -26 2 -12
-6 -15 -37 -12 -29 3 -39 0 -39 -11 0 -8 -5 -11 -10 -8 -6 3 -13 -1 -16 -10
-4 -9 -13 -14 -21 -11 -8 3 -24 -1 -36 -9 -23 -16 -11 -25 33 -22 17 1 24 -3
22 -12 -2 -8 3 -11 11 -8 10 4 13 -1 9 -19 -5 -26 4 -30 28 -14 12 8 12 10 -5
10 -17 1 -18 2 -4 10 18 11 59 2 59 -13 0 -6 -3 -8 -6 -4 -3 3 -15 -3 -27 -14
-11 -10 -34 -19 -51 -19 -42 0 -28 -8 24 -14 25 -3 39 -2 32 1 -10 4 -10 8 -1
19 14 17 33 19 23 2 -5 -7 -9 -31 -11 -53 -6 -65 -6 -65 -87 -65 l-75 0 -11
58 c-12 61 -44 186 -55 215 -6 13 -3 16 9 11 9 -3 16 -1 16 6 0 6 -4 9 -8 6
-15 -9 -29 9 -72 92 -60 116 -137 194 -215 218 -33 10 -61 19 -63 20 -1 0 2
13 8 28 l10 27 43 -34 c23 -19 62 -47 87 -62z m-86 -29 c34 -14 116 -88 116
-105 0 -11 -95 4 -147 25 -41 15 -43 18 -43 55 0 45 15 50 74 25z m896 -6 c0
-11 -4 -20 -10 -20 -14 0 -12 -27 3 -34 6 -3 -3 -4 -22 -2 -29 2 -32 1 -17 -9
15 -12 14 -13 -7 -19 -13 -3 -45 -8 -72 -11 -27 -4 -53 -9 -58 -12 -5 -3 -4 3
1 13 40 74 182 147 182 94z m-795 -150 c58 0 50 8 92 -96 7 -19 -94 4 -162 35
-72 34 -91 49 -99 78 l-7 21 62 -19 c33 -10 85 -19 114 -19z m790 21 c-3 -6
-41 -18 -84 -28 -44 -9 -77 -21 -75 -25 3 -5 -11 -8 -30 -8 -38 0 -44 -7 -23
-30 10 -12 9 -12 -5 -1 -10 7 -18 10 -18 6 0 -5 -3 -6 -6 -3 -3 4 2 20 11 37
15 30 18 31 83 32 37 0 83 7 102 14 43 17 53 18 45 6z m251 -62 c-12 -29 -15
-30 -15 -11 -1 12 -5 22 -11 22 -19 0 -10 21 13 29 28 11 32 1 13 -40z m-111
22 c-3 -6 -11 -11 -16 -11 -5 0 -4 6 3 14 14 16 24 13 13 -3z m38 -9 c-18 -5
-27 3 -18 17 4 7 10 7 20 -2 11 -10 11 -13 -2 -15z m-166 -32 c-1 -10 -3 -17
-6 -14 -2 2 -14 -4 -25 -15 -28 -25 -144 -70 -203 -78 -26 -3 -54 -13 -61 -22
-11 -14 -12 -14 -10 4 3 15 18 22 83 35 93 18 188 59 207 89 16 26 17 26 15 1z
m123 5 c-7 -9 -15 -13 -19 -10 -3 3 1 10 9 15 21 14 24 12 10 -5z m-240 1 c0
-2 -7 -7 -16 -10 -8 -3 -12 -2 -9 4 6 10 25 14 25 6z m290 -20 c0 -3 -4 -8
-10 -11 -5 -3 -10 -1 -10 4 0 6 5 11 10 11 6 0 10 -2 10 -4z m-425 -16 c3 -5
1 -10 -4 -10 -6 0 -11 5 -11 10 0 6 2 10 4 10 3 0 8 -4 11 -10z m309 -5 c-4
-8 -10 -12 -15 -9 -11 6 -2 24 11 24 5 0 7 -7 4 -15z m296 0 c0 -8 9 -15 20
-15 11 0 20 -4 20 -9 0 -11 -65 -9 -76 2 -8 7 14 37 27 37 5 0 9 -7 9 -15z
m-326 -31 c9 -24 2 -26 -12 -4 -7 11 -8 20 -3 20 5 0 12 -7 15 -16z m173 -24
c-8 -20 -18 -30 -32 -30 -20 1 -20 1 -1 15 20 15 20 15 0 16 -16 1 -17 2 -1 6
9 2 17 9 17 14 0 5 6 9 14 9 12 0 12 -5 3 -30z m-202 2 c-3 -3 -11 0 -18 7 -9
10 -8 11 6 5 10 -3 15 -9 12 -12z m86 -5 c-10 -9 -11 -8 -5 6 3 10 9 15 12 12
3 -3 0 -11 -7 -18z m292 14 c7 -1 4 -7 -7 -16 -13 -10 -15 -15 -6 -15 20 0 3
-13 -23 -17 -12 -2 -23 -8 -25 -13 -2 -6 -10 -10 -17 -10 -7 0 -16 -6 -18 -12
-4 -9 -6 -10 -6 -1 -1 6 6 18 14 26 8 8 11 18 7 22 -4 4 3 5 14 1 14 -4 24 -2
27 8 4 10 0 12 -14 9 -12 -3 -19 0 -19 8 0 13 25 16 73 10z m-888 -51 c-3 -5
-11 -10 -16 -10 -6 0 -7 5 -4 10 3 6 11 10 16 10 6 0 7 -4 4 -10z m645 6 c0
-9 -30 -14 -35 -6 -4 6 3 10 14 10 12 0 21 -2 21 -4z m-363 -62 c-3 -3 -12 -4
-19 -1 -8 3 -5 6 6 6 11 1 17 -2 13 -5z m21 -46 c-7 -5 -22 -13 -33 -19 -20
-10 -20 -10 -1 5 20 16 20 16 0 16 -14 0 -16 2 -5 9 19 12 58 2 39 -11z m-71
-8 c1 -13 -4 -20 -15 -20 -15 0 -15 2 -2 10 8 5 11 10 7 10 -5 0 -5 5 -2 10 9
14 11 13 12 -10z m131 -21 c-19 -12 -25 -11 -25 5 0 8 8 11 20 8 14 -4 16 -7
5 -13z m142 -18 c-29 -42 -34 -39 -8 4 11 20 23 34 25 31 3 -3 -5 -19 -17 -35z
m-320 -1 c-13 -23 1 -34 33 -25 16 5 19 4 12 -4 -6 -6 -26 -14 -44 -17 -33 -7
-34 -7 -27 22 4 16 12 31 17 32 5 2 6 9 3 14 -4 7 -2 8 4 4 9 -5 9 -13 2 -26z
m100 3 c0 -5 -21 -9 -48 -9 -33 -1 -41 1 -27 6 26 11 75 12 75 3z m-940 -152
c16 -34 28 -61 26 -61 -2 0 -23 25 -47 56 -34 44 -40 57 -29 64 18 11 16 13
50 -59z m1098 51 c-21 -4 -22 -11 -5 -33 11 -14 15 -15 31 -4 10 8 15 18 11
24 -3 7 2 11 14 11 12 0 21 -4 21 -10 0 -5 -4 -10 -9 -10 -5 0 -31 -22 -58
-48 -51 -52 -102 -88 -197 -141 l-60 -33 95 94 c53 52 108 111 123 131 17 22
33 34 40 30 7 -5 5 -9 -6 -11z"/>
<path d="M1484 1209 c0 -22 12 -25 19 -5 3 8 0 16 -6 19 -7 3 -13 -3 -13 -14z"/>
<path d="M1512 1193 c-15 -28 -15 -34 1 -32 6 1 19 1 27 0 12 -1 12 -3 2 -10
-11 -7 -11 -9 2 -14 8 -3 18 -2 21 3 4 6 14 5 25 -3 16 -10 23 -8 37 7 17 18
17 18 1 13 -10 -4 -17 -2 -15 5 1 6 -4 13 -12 16 -8 3 -11 0 -7 -7 4 -6 2 -11
-3 -11 -6 0 -11 7 -11 15 0 11 -7 14 -24 9 -18 -4 -25 -1 -28 13 -4 16 -5 16
-16 -4z"/>
<path d="M1660 1156 c0 -2 9 -6 20 -9 11 -3 18 -1 14 4 -5 9 -34 13 -34 5z"/>
<path d="M1633 1125 c-17 -19 -17 -20 14 -22 19 -1 22 1 12 8 -13 8 -5 13 14
10 5 -1 6 3 2 9 -9 14 -28 12 -42 -5z"/>
<path d="M1560 1106 c4 -4 16 -4 26 2 16 9 14 10 -8 9 -15 -1 -23 -6 -18 -11z"/>
<path d="M1690 1086 c0 -2 7 -7 16 -10 8 -3 12 -2 9 4 -6 10 -25 14 -25 6z"/>
<path d="M2605 1490 c-3 -5 1 -10 10 -10 9 0 13 5 10 10 -3 6 -8 10 -10 10 -2
0 -7 -4 -10 -10z"/>
<path d="M2541 1455 c-26 -9 -30 -13 -15 -16 23 -6 87 14 78 24 -9 9 -21 7
-63 -8z"/>
<path d="M2500 1418 c0 -4 7 -8 15 -8 8 0 15 4 15 8 0 5 -7 9 -15 9 -8 0 -15
-4 -15 -9z"/>
<path d="M2148 1443 c7 -3 16 -2 19 1 4 3 -2 6 -13 5 -11 0 -14 -3 -6 -6z"/>
<path d="M2004 1348 c-4 -7 -4 -10 1 -6 4 4 15 2 23 -5 12 -10 14 -9 11 2 -7
20 -26 25 -35 9z"/>
<path d="M2013 1306 c3 -6 10 -10 16 -8 6 1 11 -4 11 -10 0 -9 4 -8 10 2 14
22 13 25 -15 26 -16 1 -24 -3 -22 -10z"/>
<path d="M1900 1275 c-7 -8 -9 -15 -4 -15 5 -1 -2 -8 -16 -16 -24 -14 -24 -15
-2 -11 12 3 22 2 22 -3 0 -4 11 -5 25 -2 14 2 22 9 19 14 -4 6 -1 14 6 18 7 4
9 13 6 19 -10 16 -41 14 -56 -4z"/>
<path d="M1865 1269 c-4 -6 -5 -12 -2 -15 2 -3 7 2 10 11 7 17 1 20 -8 4z"/>
<path d="M1988 1213 c7 -3 16 -2 19 1 4 3 -2 6 -13 5 -11 0 -14 -3 -6 -6z"/>
<path d="M1895 1201 c-3 -5 0 -13 6 -17 7 -4 9 -3 5 4 -3 6 3 12 16 15 23 4
23 4 1 6 -12 0 -24 -3 -28 -8z"/>
<path d="M1826 1192 c-2 -4 0 -14 6 -22 8 -12 9 -11 4 4 -5 13 -2 17 9 12 8
-3 15 -1 15 4 0 12 -27 13 -34 2z"/>
<path d="M1830 1129 c0 -5 5 -7 10 -4 6 3 10 8 10 11 0 2 -4 4 -10 4 -5 0 -10
-5 -10 -11z"/>
<path d="M2304 1445 c-25 -19 -15 -19 27 0 25 10 29 14 13 15 -11 0 -29 -7
-40 -15z"/>
<path d="M2314 1426 c-10 -8 -16 -18 -12 -22 4 -4 15 -1 25 7 11 9 14 10 9 2
-4 -7 -3 -13 3 -13 5 0 9 9 8 20 -2 24 -7 25 -33 6z"/>
<path d="M2328 833 c6 -2 18 -2 25 0 6 3 1 5 -13 5 -14 0 -19 -2 -12 -5z"/>
</g>
</svg>
